<svg width="1411" height="969" viewBox="0 0 1411 969" fill="none" xmlns="http://www.w3.org/2000/svg">
<g clip-path="url(#clip0_241_573)" filter="url(#filter0_i_241_573)">
<rect width="1411" height="969" fill="#1E7B71"/>
<line x1="-736.389" y1="962.686" x2="4853.61" y2="-5946.31" stroke="#FAFAFA" stroke-opacity="0.3"/>
<line x1="-736.389" y1="1014.69" x2="4853.61" y2="-5894.31" stroke="#FAFAFA" stroke-opacity="0.3"/>
<line x1="-736.389" y1="1066.69" x2="4853.61" y2="-5842.31" stroke="#FAFAFA" stroke-opacity="0.3"/>
<line x1="-736.389" y1="1118.69" x2="4853.61" y2="-5790.31" stroke="#FAFAFA" stroke-opacity="0.3"/>
<line x1="-736.389" y1="1170.69" x2="4853.61" y2="-5738.31" stroke="#FAFAFA" stroke-opacity="0.3"/>
<line x1="-736.389" y1="1222.69" x2="4853.61" y2="-5686.31" stroke="#FAFAFA" stroke-opacity="0.3"/>
<line x1="-736.389" y1="1274.69" x2="4853.61" y2="-5634.31" stroke="#FAFAFA" stroke-opacity="0.3"/>
<line x1="-736.389" y1="1326.69" x2="4853.61" y2="-5582.31" stroke="#FAFAFA" stroke-opacity="0.3"/>
<line x1="-736.389" y1="1378.69" x2="4853.61" y2="-5530.31" stroke="#FAFAFA" stroke-opacity="0.3"/>
<line x1="-730.389" y1="1426.69" x2="4859.61" y2="-5482.31" stroke="#FAFAFA" stroke-opacity="0.3"/>
<line x1="-730.389" y1="1478.69" x2="4859.61" y2="-5430.31" stroke="#FAFAFA" stroke-opacity="0.3"/>
<line x1="-730.389" y1="1530.69" x2="4859.61" y2="-5378.31" stroke="#FAFAFA" stroke-opacity="0.3"/>
<line x1="-730.389" y1="1582.69" x2="4859.61" y2="-5326.31" stroke="#FAFAFA" stroke-opacity="0.3"/>
<line x1="-730.389" y1="1634.69" x2="4859.61" y2="-5274.31" stroke="#FAFAFA" stroke-opacity="0.3"/>
<line x1="-730.389" y1="1686.69" x2="4859.61" y2="-5222.31" stroke="#FAFAFA" stroke-opacity="0.3"/>
<line x1="-736.389" y1="1742.69" x2="4853.61" y2="-5166.31" stroke="#FAFAFA" stroke-opacity="0.3"/>
<line x1="-736.389" y1="1794.69" x2="4853.61" y2="-5114.31" stroke="#FAFAFA" stroke-opacity="0.3"/>
<line x1="-736.389" y1="1846.69" x2="4853.61" y2="-5062.31" stroke="#FAFAFA" stroke-opacity="0.3"/>
<line x1="-736.389" y1="1898.69" x2="4853.61" y2="-5010.31" stroke="#FAFAFA" stroke-opacity="0.3"/>
<line x1="-736.389" y1="1950.69" x2="4853.61" y2="-4958.31" stroke="#FAFAFA" stroke-opacity="0.3"/>
<line x1="-736.389" y1="2002.69" x2="4853.61" y2="-4906.31" stroke="#FAFAFA" stroke-opacity="0.3"/>
<line x1="-736.389" y1="2054.69" x2="4853.61" y2="-4854.31" stroke="#FAFAFA" stroke-opacity="0.3"/>
<line x1="-736.389" y1="2106.69" x2="4853.61" y2="-4802.31" stroke="#FAFAFA" stroke-opacity="0.3"/>
<line x1="-736.389" y1="2158.69" x2="4853.61" y2="-4750.31" stroke="#FAFAFA" stroke-opacity="0.3"/>
<line x1="-736.389" y1="2210.69" x2="4853.61" y2="-4698.31" stroke="#FAFAFA" stroke-opacity="0.3"/>
<line x1="-736.389" y1="2262.69" x2="4853.61" y2="-4646.31" stroke="#FAFAFA" stroke-opacity="0.3"/>
<line x1="-736.389" y1="2314.69" x2="4853.61" y2="-4594.31" stroke="#FAFAFA" stroke-opacity="0.3"/>
<line x1="-736.389" y1="2366.69" x2="4853.61" y2="-4542.31" stroke="#FAFAFA" stroke-opacity="0.3"/>
<line x1="-736.389" y1="2418.69" x2="4853.61" y2="-4490.31" stroke="#FAFAFA" stroke-opacity="0.3"/>
<line x1="-736.389" y1="2470.69" x2="4853.61" y2="-4438.31" stroke="#FAFAFA" stroke-opacity="0.3"/>
<line x1="-736.389" y1="2522.69" x2="4853.61" y2="-4386.31" stroke="#FAFAFA" stroke-opacity="0.3"/>
<line x1="-736.389" y1="2574.69" x2="4853.61" y2="-4334.31" stroke="#FAFAFA" stroke-opacity="0.3"/>
<line x1="-736.389" y1="2626.69" x2="4853.61" y2="-4282.31" stroke="#FAFAFA" stroke-opacity="0.3"/>
<line x1="-736.389" y1="2678.69" x2="4853.61" y2="-4230.31" stroke="#FAFAFA" stroke-opacity="0.3"/>
<line x1="-736.389" y1="2730.69" x2="4853.61" y2="-4178.31" stroke="#FAFAFA" stroke-opacity="0.3"/>
<line x1="-736.389" y1="2782.69" x2="4853.61" y2="-4126.31" stroke="#FAFAFA" stroke-opacity="0.3"/>
<line x1="-736.389" y1="2834.69" x2="4853.61" y2="-4074.31" stroke="#FAFAFA" stroke-opacity="0.3"/>
<line x1="-736.389" y1="2886.69" x2="4853.61" y2="-4022.31" stroke="#FAFAFA" stroke-opacity="0.3"/>
<line x1="-736.389" y1="2938.69" x2="4853.61" y2="-3970.31" stroke="#FAFAFA" stroke-opacity="0.3"/>
<line x1="-736.389" y1="2990.69" x2="4853.61" y2="-3918.31" stroke="#FAFAFA" stroke-opacity="0.3"/>
<line x1="-736.389" y1="3042.69" x2="4853.61" y2="-3866.31" stroke="#FAFAFA" stroke-opacity="0.3"/>
<line x1="-736.389" y1="3094.69" x2="4853.61" y2="-3814.31" stroke="#FAFAFA" stroke-opacity="0.3"/>
<line x1="-736.389" y1="3146.69" x2="4853.61" y2="-3762.31" stroke="#FAFAFA" stroke-opacity="0.3"/>
<line x1="-736.389" y1="3198.69" x2="4853.61" y2="-3710.31" stroke="#FAFAFA" stroke-opacity="0.3"/>
<line x1="-736.389" y1="3250.69" x2="4853.61" y2="-3658.31" stroke="#FAFAFA" stroke-opacity="0.3"/>
<line x1="-736.389" y1="3302.69" x2="4853.61" y2="-3606.31" stroke="#FAFAFA" stroke-opacity="0.3"/>
<line x1="-736.389" y1="3354.69" x2="4853.61" y2="-3554.31" stroke="#FAFAFA" stroke-opacity="0.3"/>
<line x1="-736.389" y1="3406.69" x2="4853.61" y2="-3502.31" stroke="#FAFAFA" stroke-opacity="0.3"/>
<line x1="-736.389" y1="3458.69" x2="4853.61" y2="-3450.31" stroke="#FAFAFA" stroke-opacity="0.3"/>
<line x1="-736.389" y1="3510.69" x2="4853.61" y2="-3398.31" stroke="#FAFAFA" stroke-opacity="0.3"/>
<line x1="-736.389" y1="3562.69" x2="4853.61" y2="-3346.31" stroke="#FAFAFA" stroke-opacity="0.3"/>
<line x1="-736.389" y1="3614.69" x2="4853.61" y2="-3294.31" stroke="#FAFAFA" stroke-opacity="0.3"/>
<line x1="-736.389" y1="3666.69" x2="4853.61" y2="-3242.31" stroke="#FAFAFA" stroke-opacity="0.3"/>
<line x1="-736.389" y1="3718.69" x2="4853.61" y2="-3190.31" stroke="#FAFAFA" stroke-opacity="0.3"/>
</g>
<defs>
<filter id="filter0_i_241_573" x="0" y="0" width="1411" height="973" filterUnits="userSpaceOnUse" color-interpolation-filters="sRGB">
<feFlood flood-opacity="0" result="BackgroundImageFix"/>
<feBlend mode="normal" in="SourceGraphic" in2="BackgroundImageFix" result="shape"/>
<feColorMatrix in="SourceAlpha" type="matrix" values="0 0 0 0 0 0 0 0 0 0 0 0 0 0 0 0 0 0 127 0" result="hardAlpha"/>
<feOffset dy="4"/>
<feGaussianBlur stdDeviation="125"/>
<feComposite in2="hardAlpha" operator="arithmetic" k2="-1" k3="1"/>
<feColorMatrix type="matrix" values="0 0 0 0 0 0 0 0 0 0 0 0 0 0 0 0 0 0 0.5 0"/>
<feBlend mode="normal" in2="shape" result="effect1_innerShadow_241_573"/>
</filter>
<clipPath id="clip0_241_573">
<rect width="1411" height="969" fill="white"/>
</clipPath>
</defs>
</svg>
